HIERARCHY
ROOT Hips
{
 OFFSET 0.000000 0.000000 0.000000
 CHANNELS 6 Xposition Yposition Zposition Yrotation Xrotation Zrotation
 JOINT Chest
 {
  OFFSET 0.000000 9.585900 0.002600
  CHANNELS 3 Yrotation Xrotation Zrotation
  JOINT Chest2
  {
   OFFSET 0.000000 9.601200 -0.005300
   CHANNELS 3 Yrotation Xrotation Zrotation
   JOINT Chest3
   {
    OFFSET 0.000000 9.561800 0.000000
    CHANNELS 3 Yrotation Xrotation Zrotation
    JOINT Chest4
    {
     OFFSET 0.000000 9.552100 0.000000
     CHANNELS 3 Yrotation Xrotation Zrotation
     JOINT Neck
     {
      OFFSET 0.000000 14.453000 0.000000
      CHANNELS 3 Yrotation Xrotation Zrotation
      JOINT Head
      {
       OFFSET 0.000000 8.936500 -0.011300
       CHANNELS 3 Yrotation Xrotation Zrotation
       End Site
       {
        OFFSET 0.000000 17.073600 -0.006000
       }
      }
     }
     JOINT RightCollar
     {
      OFFSET -2.921100 9.558500 0.000000
      CHANNELS 3 Yrotation Xrotation Zrotation
      JOINT RightShoulder
      {
       OFFSET -13.519700 0.000000 0.000000
       CHANNELS 3 Yrotation Xrotation Zrotation
       JOINT RightElbow
       {
        OFFSET 0.000000 -29.696600 0.000000
        CHANNELS 3 Yrotation Xrotation Zrotation
        JOINT RightWrist
        {
         OFFSET 0.000000 -24.004700 0.000000
         CHANNELS 3 Yrotation Xrotation Zrotation
         End Site
         {
          OFFSET 0.000000 -17.728500 0.000000
         }
        }
       }
      }
     }
     JOINT LeftCollar
     {
      OFFSET 2.921100 9.558500 0.000000
      CHANNELS 3 Yrotation Xrotation Zrotation
      JOINT LeftShoulder
      {
       OFFSET 13.519700 0.000000 0.000000
       CHANNELS 3 Yrotation Xrotation Zrotation
       JOINT LeftElbow
       {
        OFFSET 0.000000 -29.696600 0.000000
        CHANNELS 3 Yrotation Xrotation Zrotation
        JOINT LeftWrist
        {
         OFFSET 0.000000 -24.004700 0.000000
         CHANNELS 3 Yrotation Xrotation Zrotation
         End Site
         {
          OFFSET 0.000000 -17.728500 0.000000
         }
        }
       }
      }
     }
    }
   }
  }
 }
 JOINT RightHip
 {
  OFFSET -7.771700 -0.012900 -0.001300
  CHANNELS 3 Yrotation Xrotation Zrotation
  JOINT RightKnee
  {
   OFFSET 0.000000 -40.869800 0.001200
   CHANNELS 3 Yrotation Xrotation Zrotation
   JOINT RightAnkle
   {
    OFFSET 0.000000 -39.717900 0.002100
    CHANNELS 3 Yrotation Xrotation Zrotation
    JOINT RightToe
    {
     OFFSET 0.000000 -4.965400 11.033500
     CHANNELS 3 Yrotation Xrotation Zrotation
     End Site
     {
      OFFSET 0.000000 -1.423100 5.872300
     }
    }
   }
  }
 }
 JOINT LeftHip
 {
  OFFSET 7.771700 -0.012900 -0.001300
  CHANNELS 3 Yrotation Xrotation Zrotation
  JOINT LeftKnee
  {
   OFFSET 0.000000 -40.869800 0.001200
   CHANNELS 3 Yrotation Xrotation Zrotation
   JOINT LeftAnkle
   {
    OFFSET 0.000000 -39.717900 0.002100
    CHANNELS 3 Yrotation Xrotation Zrotation
    JOINT LeftToe
    {
     OFFSET 0.000000 -4.965400 11.033500
     CHANNELS 3 Yrotation Xrotation Zrotation
     End Site
     {
      OFFSET 0.000000 -1.423100 5.872300
     }
    }
   }
  }
 }
}
MOTION
Frames: 11
Frame Time: 0.008333
0.000000 85.388000 0.000000 0.000000 -5.767877 0.000000 0.000000 11.653817 0.000000 0.000000 -5.885947 0.000000 0.000000 -0.000000 0.000000 0.000000 -0.000000 0.000000 0.000000 12.528835 0.000000 0.000000 0.711642 0.000000 0.000000 -0.000000 0.000000 0.000000 0.000000 -90.000000 0.000000 -2.309062 0.000000 0.000000 2.309062 0.000000 0.000000 -0.000000 0.000000 0.000000 -0.000000 90.000000 0.000000 -2.309062 0.000000 0.000000 2.309062 0.000000 0.000000 8.520406 0.000000 0.000000 1.905762 0.000000 -0.000000 -4.658285 0.000000 0.000000 -0.000000 0.000000 0.000000 8.520406 0.000000 0.000000 1.905762 0.000000 -0.000000 -4.658285 0.000000 0.000000 -0.000000 0.000000
-65.507551 63.085372 12.060342 165.411273 -49.749231 -2.594483 8.258008 28.626967 4.734186 1.400408 5.516126 0.382684 2.218872 8.585837 0.656706 6.406781 22.893678 2.626608 5.619084 10.278851 6.022564 8.150256 -16.803470 9.113408 8.719393 -3.003173 7.456185 21.157880 -27.503171 -22.918871 -88.330101 -40.542792 138.918240 5.225349 -0.396694 17.321892 -13.473270 -5.720880 -0.757367 -16.150484 -23.899540 20.077769 111.674779 -56.460345 -146.292657 7.856207 -6.881788 -7.493333 -5.604014 -10.711248 8.907100 -28.658553 74.426706 -26.063766 1.634037 -13.570115 -2.758133 -0.378589 0.817249 -0.166917 -4.586466 -17.548171 -0.246376 12.131808 64.258282 5.259706 -2.898607 -9.722605 0.500818 -0.205345 -0.533396 -0.090478
-65.508020 63.086089 12.061568 165.404298 -49.736364 -2.589120 8.240995 28.715540 4.730222 1.404588 5.519108 0.380496 2.218049 8.619579 0.656623 6.390910 22.933103 2.620885 5.530067 10.230042 5.974052 7.998947 -16.891493 9.059337 8.737401 -3.153948 7.390430 21.164140 -27.398537 -22.900854 -88.346103 -40.527303 138.952420 5.228475 -0.391850 17.216742 -13.462938 -5.799135 -0.706081 -16.109457 -23.883768 20.000606 111.482643 -56.426417 -146.187126 7.849764 -6.846913 -7.405176 -5.600902 -10.724086 8.908862 -28.653961 74.425914 -26.060364 1.631482 -13.570505 -2.757948 -0.376378 0.817867 -0.167143 -4.584856 -17.558873 -0.246984 12.124138 64.254395 5.254914 -2.894427 -9.727346 0.499286 -0.200095 -0.527898 -0.091582
-65.508608 63.087239 12.062828 165.395360 -49.724209 -2.580285 8.227692 28.782696 4.723140 1.408448 5.517914 0.379034 2.213472 8.679310 0.658627 6.374588 22.973698 2.613943 5.439298 10.185402 5.928483 7.842978 -16.971668 9.011971 8.756664 -3.305016 7.328264 21.170928 -27.282103 -22.884251 -88.453290 -40.534454 139.075777 5.171133 -0.363879 17.096095 -13.437617 -5.949133 -0.688235 -16.091009 -23.791128 19.945466 111.352013 -56.412368 -146.117568 7.839641 -6.832102 -7.320715 -5.601221 -10.737164 8.910005 -28.660238 74.423734 -26.072440 1.630686 -13.563478 -2.758761 -0.373683 0.811976 -0.165507 -4.581739 -17.567407 -0.248274 12.099955 64.248153 5.234453 -2.891724 -9.730242 0.497453 -0.198102 -0.522319 -0.092624
-65.508869 63.087964 12.064937 165.390473 -49.706889 -2.575651 8.216107 28.842582 4.716782 1.419306 5.467407 0.375537 2.204394 8.789275 0.664759 6.361492 23.014380 2.606556 5.344880 10.144146 5.887891 7.677713 -17.045448 8.976082 8.754240 -3.440272 7.267852 21.196489 -27.177412 -22.867804 -88.343904 -40.483901 138.959099 5.277198 -0.412572 17.077538 -13.424512 -6.051043 -0.650993 -16.070327 -23.746986 19.902771 111.302993 -56.407171 -146.101676 7.832822 -6.829365 -7.243995 -5.616984 -10.751031 8.912282 -28.634672 74.420447 -26.062569 1.631270 -13.563051 -2.759848 -0.373297 0.813674 -0.166485 -4.582256 -17.583777 -0.251053 12.101231 64.242807 5.242034 -2.894477 -9.730230 0.490357 -0.197365 -0.520908 -0.092186
-65.508494 63.089513 12.066805 165.390534 -49.695072 -2.575429 8.207181 28.906025 4.712128 1.415526 5.493286 0.377079 2.212074 8.823534 0.661071 6.353521 23.054288 2.599482 5.246794 10.106492 5.852866 7.502792 -17.112553 8.952790 8.746291 -3.572268 7.210941 21.220309 -27.078601 -22.849151 -88.321926 -40.462540 138.926865 5.314247 -0.439509 17.038209 -13.420763 -6.151674 -0.611630 -16.054104 -23.700699 19.878672 111.318986 -56.399979 -146.129584 7.834549 -6.829417 -7.170929 -5.634244 -10.758261 8.911894 -28.615011 74.418254 -26.052334 1.634208 -13.563704 -2.766487 -0.372376 0.814129 -0.165280 -4.584199 -17.594859 -0.252912 12.111752 64.239202 5.255312 -2.892807 -9.729781 0.488061 -0.220421 -0.521090 -0.096663
-65.507850 63.090944 12.069033 165.380551 -49.683026 -2.566678 8.206968 28.966786 4.706092 1.416719 5.519980 0.378891 2.216033 8.856870 0.657368 6.347579 23.093672 2.592412 5.148243 10.073204 5.821902 7.325085 -17.171577 8.937664 8.705128 -3.676284 7.150636 21.277638 -27.005145 -22.829663 -88.376913 -40.465843 138.976646 5.336468 -0.462625 17.026266 -13.419394 -6.270195 -0.573871 -16.045827 -23.633654 19.867506 111.350987 -56.384455 -146.160354 7.831874 -6.834811 -7.094486 -5.644135 -10.768478 8.909441 -28.609528 74.416746 -26.052088 1.636525 -13.562061 -2.770390 -0.366983 0.812091 -0.167895 -4.578222 -17.605352 -0.254651 12.116141 64.235002 5.260378 -2.886068 -9.730044 0.491909 -0.204930 -0.525965 -0.098192
-65.506880 63.092298 12.071541 165.372978 -49.671455 -2.559028 8.207631 28.991185 4.700783 1.413119 5.581308 0.377117 2.222002 8.888375 0.657622 6.341851 23.132664 2.585240 5.050854 10.045306 5.793897 7.148334 -17.220591 8.927769 8.679905 -3.798271 7.095207 21.314444 -26.915710 -22.805193 -88.496253 -40.482416 139.097878 5.248353 -0.429050 16.911619 -13.418232 -6.399648 -0.538235 -16.052804 -23.551475 19.866973 111.367446 -56.359766 -146.164679 7.784419 -6.871157 -7.070970 -5.655418 -10.779100 8.906902 -28.600085 74.417019 -26.048117 1.638614 -13.557455 -2.779285 -0.361700 0.807866 -0.166273 -4.573445 -17.614675 -0.258014 12.118456 64.229131 5.265791 -2.881715 -9.731503 0.495438 -0.206565 -0.525430 -0.102547
-65.505437 63.093353 12.074515 165.365993 -49.659486 -2.552362 8.208936 29.014442 4.697213 1.411730 5.640537 0.377464 2.227270 8.916775 0.655568 6.338968 23.170335 2.579769 4.953088 10.023809 5.768448 6.969869 -17.257693 8.923102 8.657455 -3.925662 7.041262 21.344477 -26.821850 -22.775972 -88.465303 -40.512476 139.034384 5.235286 -0.482002 16.882354 -13.418632 -6.545608 -0.509574 -16.084452 -23.444680 19.875273 111.380381 -56.328299 -146.154630 7.780418 -6.879922 -6.949479 -5.665749 -10.790779 8.903406 -28.565697 74.423300 -26.008800 1.615982 -13.555202 -2.801993 -0.337434 0.803565 -0.156240 -4.570332 -17.625553 -0.259075 12.123037 64.224268 5.274291 -2.888888 -9.730069 0.494147 -0.201781 -0.525700 -0.104212
-65.502920 63.095306 12.077053 165.354088 -49.657283 -2.544825 8.215253 29.075209 4.695884 1.415209 5.724297 0.379161 2.236274 8.885055 0.653616 6.341116 23.205815 2.577416 4.853537 10.009047 5.745140 6.787103 -17.282224 8.923509 8.624119 -4.048038 6.987180 21.377851 -26.733037 -22.742602 -88.483267 -40.537951 139.025867 5.214688 -0.510492 16.860081 -13.441363 -6.656219 -0.471522 -16.126291 -23.366361 19.888762 111.396802 -56.291539 -146.143886 7.777982 -6.887276 -6.807891 -5.670599 -10.791867 8.905178 -28.554585 74.420875 -25.999956 1.611822 -13.547191 -2.806600 -0.329948 0.797816 -0.156618 -4.567471 -17.623818 -0.259682 12.115666 64.217577 5.271968 -2.883451 -9.733394 0.491446 -0.207443 -0.522029 -0.107679
-65.499732 63.096489 12.080480 165.333604 -49.652573 -2.533621 8.234782 29.179318 4.706068 1.423548 5.710200 0.377508 2.243418 8.897284 0.653029 6.346104 23.239846 2.576403 4.753625 10.000502 5.724338 6.602645 -17.295134 8.928965 8.582821 -4.169219 6.935220 21.409074 -26.649708 -22.703951 -88.513680 -40.553336 139.034296 5.192308 -0.519550 16.831790 -13.476031 -6.770542 -0.430603 -16.178306 -23.282486 19.900696 111.396602 -56.251145 -146.121590 7.755310 -6.904592 -6.671495 -5.669019 -10.797477 8.910076 -28.539508 74.419765 -25.986107 1.608892 -13.539012 -2.807999 -0.331974 0.792819 -0.156169 -4.556732 -17.626894 -0.253706 12.109336 64.214624 5.267999 -2.882331 -9.731871 0.493439 -0.215921 -0.526064 -0.111438
